<svg width="40" height="40" fill="none" xmlns="http://www.w3.org/2000/svg"><path d="M30 16.25h-2.5a3.754 3.754 0 0 0-3.75-3.75V10A6.257 6.257 0 0 1 30 16.25Z" fill="#6C6C6C"/><path d="M35 16.25h-2.5a8.76 8.76 0 0 0-8.75-8.75V5A11.262 11.262 0 0 1 35 16.25Zm-2.5 20h-.212C7.725 34.837 4.238 14.113 3.75 7.788A3.75 3.75 0 0 1 7.5 3.75h6.588a2.5 2.5 0 0 1 2.325 1.575l1.9 4.675a2.5 2.5 0 0 1-.55 2.7L15.1 15.388a11.7 11.7 0 0 0 9.475 9.5l2.713-2.688A2.5 2.5 0 0 1 30 21.688l4.712 1.887A2.5 2.5 0 0 1 36.25 25.9v6.6a3.75 3.75 0 0 1-3.75 3.75Zm-25-30A1.25 1.25 0 0 0 6.25 7.6c.575 7.4 4.262 24.9 26.175 26.15a1.25 1.25 0 0 0 1.323-1.172l.002-.078v-6.6l-4.712-1.887-3.588 3.562-.6-.075C13.975 26.137 12.5 15.262 12.5 15.15l-.075-.6 3.55-3.588L14.1 6.25H7.5Z" fill="#6C6C6C"/></svg>